HIERARCHY
ROOT Pelvis
{
	OFFSET 0.000000 0.000000 0.000000
	CHANNELS 6 Xposition Yposition Zposition Xrotation Yrotation Zrotation
	JOINT LeftUpLeg_virtual
	{
		OFFSET 0.000000 0.000000 0.000000
		CHANNELS 3 Xrotation Yrotation Zrotation
		JOINT LeftUpLeg
		{
			OFFSET 18.735201 -5.666702 -4.541200
			CHANNELS 3 Xrotation Yrotation Zrotation
			JOINT LeftLeg
			{
				OFFSET -0.021200 -31.938179 0.493100
				CHANNELS 3 Xrotation Yrotation Zrotation
				JOINT LeftFoot
				{
					OFFSET 0.021200 -31.938179 -4.336299
					CHANNELS 3 Xrotation Yrotation Zrotation
					JOINT LeftToeBase
					{
						OFFSET 0.943001 -26.722000 15.023500
						CHANNELS 3 Xrotation Yrotation Zrotation
						End Site
						{
							OFFSET 0 0 0
						}
					}
				}
			}
		}
	}
	JOINT RightUpLeg_virtual
	{
		OFFSET 0.000000 0.000000 0.000000
		CHANNELS 3 Xrotation Yrotation Zrotation
		JOINT RightUpLeg
		{
			OFFSET -18.735201 -5.666702 -4.541200
			CHANNELS 3 Xrotation Yrotation Zrotation
			JOINT RightLeg
			{
				OFFSET 0.018946 -31.938133 0.493100
				CHANNELS 3 Xrotation Yrotation Zrotation
				JOINT RightFoot
				{
					OFFSET -0.018946 -31.938126 -4.336299
					CHANNELS 3 Xrotation Yrotation Zrotation
					JOINT RightToeBase
					{
						OFFSET -0.943001 -26.722004 15.023500
						CHANNELS 3 Xrotation Yrotation Zrotation
						End Site
						{
							OFFSET 0 0 0
						}
					}
				}
			}
		}
	}
	JOINT Hips_virtual
	{
		OFFSET 0.000000 0.000000 0.000000
		CHANNELS 3 Xrotation Yrotation Zrotation
		JOINT Hips
		{
			OFFSET -0.000000 -0.000000 -0.000000
			CHANNELS 3 Xrotation Yrotation Zrotation
			JOINT Spine
			{
				OFFSET 0.000000 10.199997 -0.299500
				CHANNELS 3 Xrotation Yrotation Zrotation
				JOINT Spine1
				{
					OFFSET 0.000000 11.900002 -1.516600
					CHANNELS 3 Xrotation Yrotation Zrotation
					JOINT Spine2
					{
						OFFSET 0.000000 13.600006 -2.842500
						CHANNELS 3 Xrotation Yrotation Zrotation
						JOINT Neck_virtual
						{
							OFFSET 0.000000 0.000000 0.000000
							CHANNELS 3 Xrotation Yrotation Zrotation
							JOINT Neck
							{
								OFFSET 0.000000 9.624100 -2.890100
								CHANNELS 3 Xrotation Yrotation Zrotation
								JOINT Head
								{
									OFFSET 0.000000 14.068802 -1.351900
									CHANNELS 3 Xrotation Yrotation Zrotation
									End Site
									{
										OFFSET 0 0 0
									}
								}
							}
						}
						JOINT LeftShoulder_virtual
						{
							OFFSET 0.000000 0.000000 0.000000
							CHANNELS 3 Xrotation Yrotation Zrotation
							JOINT LeftShoulder
							{
								OFFSET 15.263000 10.923401 -0.547700
								CHANNELS 3 Xrotation Yrotation Zrotation
								JOINT LeftArm
								{
									OFFSET 25.438599 -2.830597 -13.032500
									CHANNELS 3 Xrotation Yrotation Zrotation
									JOINT LeftForeArm
									{
										OFFSET 29.960503 0.000000 0.000000
										CHANNELS 3 Xrotation Yrotation Zrotation
										JOINT LeftHand
										{
											OFFSET 27.849251 0.000000 0.000000
											CHANNELS 3 Xrotation Yrotation Zrotation
											End Site
											{
												OFFSET 0 0 0
											}
										}
									}
								}
							}
						}
						JOINT RightShoulder_virtual
						{
							OFFSET 0.000000 0.000000 0.000000
							CHANNELS 3 Xrotation Yrotation Zrotation
							JOINT RightShoulder
							{
								OFFSET -15.263000 10.923401 -0.547700
								CHANNELS 3 Xrotation Yrotation Zrotation
								JOINT RightArm
								{
									OFFSET -25.438599 -2.830597 -13.032500
									CHANNELS 3 Xrotation Yrotation Zrotation
									JOINT RightForeArm
									{
										OFFSET -29.960503 0.000000 0.000000
										CHANNELS 3 Xrotation Yrotation Zrotation
										JOINT RightHand
										{
											OFFSET -27.849251 0.000000 0.000000
											CHANNELS 3 Xrotation Yrotation Zrotation
											End Site
											{
												OFFSET 0 0 0
											}
										}
									}
								}
							}
						}
					}
				}
			}
		}
	}
}
MOTION
Frames: 11
Frame Time: 0.03333333
2.886631 84.856133 3.797738 0.000000 0.000000 0.000000 0.027050 -13.738192 4.842850 -44.448105 3.956851 22.439695 52.451587 -0.345210 -2.644272 0.864874 0.493898 -10.111930 0.000000 0.000000 0.000000 8.368336 0.027116 -7.917775 -20.115213 -3.699618 -23.522980 39.016636 2.588107 4.951055 -13.840973 -4.002375 20.138721 0.000000 0.000000 0.000000 5.417536 0.157434 0.869929 1.626280 -4.382298 -0.322683 11.979220 2.264403 -1.791091 7.109703 0.686659 -1.315043 0.000000 0.000000 0.000000 2.900672 1.308883 -1.156739 1.006424 -0.604338 0.330628 0.000000 0.000000 0.000000 7.592209 -1.373328 -0.612066 5.725028 -26.383335 7.794972 -56.915007 -27.382131 -22.196267 -9.911498 -61.762211 0.408845 0.000000 0.000000 0.000000 4.512730 2.536783 -2.334204 7.028565 20.461937 -16.001253 -17.308913 34.691753 6.550380 -1.001531 41.251713 -2.032995 0.000000 0.000000 0.000000 
2.949609 84.704605 3.761821 0.000000 0.000000 0.000000 -0.017852 -13.865054 4.883688 -44.542730 3.897940 22.484180 52.645162 -0.402550 -2.591148 1.023905 0.400856 -10.074312 0.000000 0.000000 0.000000 8.262902 -0.139715 -7.959717 -20.238226 -3.711315 -23.575516 39.110189 2.541028 5.021368 -13.766927 -4.072637 20.209722 0.000000 0.000000 0.000000 5.534927 0.095329 0.884989 1.648554 -4.411874 -0.452240 11.964766 2.211307 -1.782575 7.149241 0.650352 -1.304024 0.000000 0.000000 0.000000 2.688056 1.332523 -1.113076 0.984407 -0.633165 0.336368 0.000000 0.000000 0.000000 7.532398 -1.365601 -0.675803 5.649853 -26.744576 7.721928 -56.912862 -27.775075 -21.408473 -9.464157 -61.140725 0.751857 0.000000 0.000000 0.000000 4.369903 2.488426 -2.322946 7.161773 20.587968 -16.533226 -16.730801 35.315763 6.326340 -0.880915 40.474844 -1.909220 0.000000 0.000000 0.000000 
3.005453 84.535789 3.748647 0.000000 0.000000 0.000000 -0.055485 -13.999720 4.933575 -44.629825 3.835331 22.536037 52.837531 -0.460484 -2.538091 1.178845 0.307365 -10.038797 0.000000 0.000000 0.000000 8.185125 -0.267556 -7.992833 -20.325786 -3.721025 -23.616462 39.201727 2.498815 5.077816 -13.695697 -4.131524 20.263718 0.000000 0.000000 0.000000 5.619921 0.036518 0.896238 1.606747 -4.412298 -0.598840 11.955724 2.174809 -1.783229 7.183129 0.626162 -1.296215 0.000000 0.000000 0.000000 2.513648 1.357255 -1.067714 0.969956 -0.655939 0.346664 0.000000 0.000000 0.000000 7.481668 -1.346124 -0.745025 5.558794 -26.997195 7.599051 -56.822680 -28.078259 -20.771179 -9.059526 -60.619459 1.013603 0.000000 0.000000 0.000000 4.247161 2.441411 -2.304164 7.263308 20.656051 -16.958028 -16.231152 35.850416 6.208367 -0.789280 39.843741 -1.755870 0.000000 0.000000 0.000000 
3.054769 84.359489 3.756131 0.000000 0.000000 0.000000 -0.087199 -14.132482 4.987349 -44.708953 3.773101 22.590728 53.024036 -0.512080 -2.485465 1.327396 0.220921 -10.000369 0.000000 0.000000 0.000000 8.131620 -0.354529 -8.019333 -20.382997 -3.726850 -23.647631 39.290397 2.465311 5.120346 -13.627418 -4.175508 20.303299 0.000000 0.000000 0.000000 5.671683 -0.015299 0.902561 1.504424 -4.392553 -0.753205 11.957302 2.154939 -1.792149 7.214814 0.614116 -1.291518 0.000000 0.000000 0.000000 2.377090 1.384409 -1.024764 0.964177 -0.672137 0.359181 0.000000 0.000000 0.000000 7.441096 -1.316988 -0.815053 5.462206 -27.159545 7.452880 -56.675725 -28.297931 -20.256835 -8.698336 -60.176787 1.210398 0.000000 0.000000 0.000000 4.145803 2.401234 -2.282325 7.344263 20.694968 -17.302307 -15.820624 36.312332 6.173900 -0.725190 39.349034 -1.583734 0.000000 0.000000 0.000000 
3.097671 84.185181 3.780898 0.000000 0.000000 0.000000 -0.113658 -14.254181 5.039694 -44.778915 3.715474 22.643549 53.199664 -0.552447 -2.433899 1.467001 0.147042 -9.955878 0.000000 0.000000 0.000000 8.098589 -0.403843 -8.040562 -20.414846 -3.728456 -23.670369 39.374931 2.442155 5.150227 -13.562337 -4.203767 20.331511 0.000000 0.000000 0.000000 5.692276 -0.058137 0.903053 1.351662 -4.362389 -0.909160 11.972954 2.150395 -1.807533 7.246945 0.613449 -1.289362 0.000000 0.000000 0.000000 2.274981 1.414654 -0.986913 0.966621 -0.681718 0.372167 0.000000 0.000000 0.000000 7.409843 -1.280901 -0.881913 5.367731 -27.252508 7.306007 -56.502467 -28.446589 -19.844679 -8.383014 -59.797931 1.353947 0.000000 0.000000 0.000000 4.065075 2.371642 -2.260740 7.413017 20.727017 -17.588302 -15.502310 36.712813 6.205188 -0.686891 38.974688 -1.400426 0.000000 0.000000 0.000000 
3.133992 84.021172 3.818549 0.000000 0.000000 0.000000 -0.134856 -14.357799 5.085857 -44.837935 3.666128 22.690158 53.359306 -0.578973 -2.384100 1.594941 0.088919 -9.904030 0.000000 0.000000 0.000000 8.082339 -0.422362 -8.056945 -20.425711 -3.726792 -23.685426 39.453761 2.428937 5.169579 -13.500762 -4.217784 20.351256 0.000000 0.000000 0.000000 5.686183 -0.091058 0.897270 1.162984 -4.329903 -1.062885 12.003755 2.159165 -1.826910 7.281009 0.622907 -1.288814 0.000000 0.000000 0.000000 2.201615 1.448122 -0.955104 0.975563 -0.685125 0.384711 0.000000 0.000000 0.000000 7.385929 -1.240537 -0.942755 5.280222 -27.296661 7.175391 -56.328481 -28.538241 -19.518020 -8.115648 -59.471441 1.452935 0.000000 0.000000 0.000000 4.002409 2.354688 -2.241377 7.474610 20.767644 -17.832205 -15.273635 37.058366 6.289538 -0.672556 38.699012 -1.210360 0.000000 0.000000 0.000000 
3.163495 83.873985 3.863955 0.000000 0.000000 0.000000 -0.150222 -14.439467 5.122378 -44.883895 3.627607 22.727205 53.498379 -0.591216 -2.336636 1.708669 0.047418 -9.845059 0.000000 0.000000 0.000000 8.079549 -0.418581 -8.068254 -20.419289 -3.723494 -23.693120 39.525205 2.423668 5.180723 -13.443051 -4.220585 20.364636 0.000000 0.000000 0.000000 5.659639 -0.113676 0.885388 0.955086 -4.299933 -1.212025 12.048246 2.178981 -1.847472 7.317208 0.640990 -1.288756 0.000000 0.000000 0.000000 2.149919 1.484529 -0.928741 0.988454 -0.683244 0.396728 0.000000 0.000000 0.000000 7.367064 -1.198030 -0.996047 5.202246 -27.309857 7.071778 -56.171616 -28.584868 -19.261967 -7.896455 -59.186335 1.514483 0.000000 0.000000 0.000000 3.953932 2.350914 -2.225041 7.530948 20.825645 -18.044402 -15.128051 37.352324 6.418619 -0.680279 38.497125 -1.015253 0.000000 0.000000 0.000000 
3.186033 83.747902 3.911578 0.000000 0.000000 0.000000 -0.158809 -14.498641 5.147518 -44.914747 3.601029 22.752767 53.613502 -0.590532 -2.291816 1.806182 0.021389 -9.780264 0.000000 0.000000 0.000000 8.087335 -0.400684 -8.074160 -20.398780 -3.720216 -23.693755 39.587623 2.423352 5.185570 -13.389675 -4.215900 20.372419 0.000000 0.000000 0.000000 5.619881 -0.125843 0.868187 0.744671 -4.273488 -1.355163 12.102717 2.207526 -1.866391 7.354628 0.666089 -1.288075 0.000000 0.000000 0.000000 2.112441 1.523273 -0.906266 1.002427 -0.677287 0.408705 0.000000 0.000000 0.000000 7.351274 -1.154758 -1.041506 5.134844 -27.306009 7.000277 -56.040944 -28.594864 -19.062117 -7.723063 -58.930442 1.545099 0.000000 0.000000 0.000000 3.915081 2.359580 -2.211748 7.581598 20.903954 -18.230787 -15.056679 37.596735 6.587261 -0.708050 38.343951 -0.814909 0.000000 0.000000 0.000000 
3.201624 83.644958 3.955856 0.000000 0.000000 0.000000 -0.159557 -14.537684 5.161180 -44.928923 3.586166 22.766378 53.702799 -0.579526 -2.249743 1.886162 0.008259 -9.711684 0.000000 0.000000 0.000000 8.103173 -0.375298 -8.074730 -20.367155 -3.718155 -23.687981 39.639522 2.424449 5.185211 -13.341348 -4.207568 20.373725 0.000000 0.000000 0.000000 5.574384 -0.127462 0.846875 0.546595 -4.248033 -1.491678 12.161943 2.242476 -1.881096 7.391597 0.696551 -1.285813 0.000000 0.000000 0.000000 2.082247 1.563524 -0.885874 1.014782 -0.668649 0.421353 0.000000 0.000000 0.000000 7.337149 -1.111448 -1.079794 5.078243 -27.295017 6.961757 -55.937624 -28.573038 -18.904207 -7.590551 -58.690272 1.551207 0.000000 0.000000 0.000000 3.881259 2.378932 -2.201121 7.624793 21.000738 -18.394522 -15.050021 37.793663 6.792195 -0.753846 38.217101 -0.608074 0.000000 0.000000 0.000000 
3.210445 83.565369 3.991650 0.000000 0.000000 0.000000 -0.151587 -14.560993 5.164444 -44.925689 3.581761 22.768656 53.765760 -0.561403 -2.210496 1.947825 0.004805 -9.641844 0.000000 0.000000 0.000000 8.124846 -0.347233 -8.070568 -20.327340 -3.717925 -23.676940 39.679492 2.423198 5.179885 -13.299057 -4.199219 20.366174 0.000000 0.000000 0.000000 5.530111 -0.118357 0.822859 0.372394 -4.218418 -1.621745 12.220097 2.281502 -1.889459 7.426152 0.730722 -1.281260 0.000000 0.000000 0.000000 2.053612 1.604339 -0.866118 1.023341 -0.658723 0.435275 0.000000 0.000000 0.000000 7.323803 -1.068440 -1.112108 5.032357 -27.283517 6.954531 -55.856870 -28.521442 -18.774240 -7.492103 -58.451700 1.539269 0.000000 0.000000 0.000000 3.848358 2.406519 -2.192714 7.658381 21.110728 -18.537523 -15.099641 37.946164 7.031150 -0.815884 38.099150 -0.393115 0.000000 0.000000 0.000000 
3.212828 83.508095 4.014709 0.000000 0.000000 0.000000 -0.134468 -14.573962 5.158944 -44.905311 3.585969 22.760861 53.802633 -0.539287 -2.174350 1.990553 0.007979 -9.573554 0.000000 0.000000 0.000000 8.150425 -0.319990 -8.062450 -20.282170 -3.719791 -23.661915 39.706427 2.415897 5.169288 -13.263928 -4.194195 20.346575 0.000000 0.000000 0.000000 5.492851 -0.098267 0.797521 0.229262 -4.178276 -1.746209 12.271650 2.322320 -1.889942 7.456481 0.767018 -1.274009 0.000000 0.000000 0.000000 2.022411 1.644809 -0.846258 1.026643 -0.648729 0.450769 0.000000 0.000000 0.000000 7.310705 -1.025966 -1.139794 4.997064 -27.275862 6.975886 -55.790266 -28.440237 -18.658728 -7.419904 -58.200629 1.515735 0.000000 0.000000 0.000000 3.813129 2.439550 -2.186215 7.680582 21.226729 -18.661503 -15.199601 38.058716 7.302454 -0.892984 37.979021 -0.168426 0.000000 0.000000 0.000000 
